<svg width="99" height="46" viewBox="0 0 99 46" fill="none" xmlns="http://www.w3.org/2000/svg">
<g clip-path="url(#clip0_1_317)">
<path d="M9.675 42.1298V46.0155H8.1V42.1298H4.66667V46.0155H3.1V42.1298H0V40.5754H12.775V42.1298H9.675ZM3.38333 38.8579C2.60612 38.6205 1.91603 38.1842 1.39167 37.5989C0.931965 37.0301 0.683321 36.3372 0.683321 35.6249C0.683321 34.9127 0.931965 34.2198 1.39167 33.651C1.9189 33.0703 2.60827 32.6372 3.38333 32.3997C4.35055 32.1014 5.36471 31.9569 6.38333 31.9723C7.40201 31.9561 8.4163 32.1006 9.38333 32.3997C10.1606 32.6374 10.8527 33.0704 11.3833 33.651C11.843 34.2198 12.0917 34.9127 12.0917 35.6249C12.0917 36.3372 11.843 37.0301 11.3833 37.5989C10.8558 38.1845 10.163 38.6206 9.38333 38.8579C8.4178 39.1635 7.40278 39.3108 6.38333 39.2931C5.36393 39.3101 4.34903 39.1629 3.38333 38.8579ZM3.45833 34.0473C3.13919 34.1837 2.86875 34.4027 2.67915 34.6782C2.48955 34.9537 2.38876 35.2742 2.38876 35.6016C2.38876 35.929 2.48955 36.2495 2.67915 36.525C2.86875 36.8006 3.13919 37.0195 3.45833 37.1559C4.36692 37.5707 5.37275 37.7658 6.38333 37.7233C7.39659 37.7658 8.40512 37.5708 9.31667 37.1559C9.63304 37.0172 9.90054 36.7974 10.0879 36.5222C10.2753 36.2469 10.3748 35.9276 10.3748 35.6016C10.3748 35.2756 10.2753 34.9563 10.0879 34.6811C9.90054 34.4058 9.63304 34.186 9.31667 34.0473C8.40512 33.6325 7.39659 33.4374 6.38333 33.48C5.37275 33.4374 4.36692 33.6325 3.45833 34.0473Z" fill="white"/>
<path d="M21.5917 32.2598V44.8653H14.45V32.2598H16.0083V36.9228H20V32.2598H21.5917ZM20 38.516H16.0083V43.2955H20V38.516ZM25.4417 39.0367V45.6736H23.9V31.8635H25.475V37.4046H27.2417V39.0367H25.4417Z" fill="white"/>
<path d="M40.575 42.5261V44.0804C40.0319 44.3578 39.4434 44.5495 38.8333 44.6477C38.043 44.7935 37.2389 44.8638 36.4333 44.8576H31.4333V43.3033H32.8833V33.8996H31.5333V32.3453H39.8667V33.8996H38.5333V43.1556C39.2471 43.0547 39.9374 42.8418 40.575 42.5261ZM36.975 43.3033V33.8996H34.475V43.3188H35.7167C36.0417 43.3188 36.4583 43.3033 36.975 43.2799V43.3033ZM43.15 45.6969H41.575V31.8635H43.15V45.6969Z" fill="white"/>
<path d="M52.2333 42.1997V46H50.6167V42.1997H45.0417V40.6454H57.8083V42.1997H52.2333ZM45.9167 39.1999V32.0966H47.5V33.9696H55.4083V32.0966H56.9667V39.1999H45.9167ZM55.3833 35.4773H47.5V37.6922H55.4083L55.3833 35.4773Z" fill="white"/>
<path d="M67.925 42.6893V44.298C66.618 44.7499 65.2251 44.9457 63.8333 44.8731H58.9V43.2644H61.0833V37.4901H62.675V43.2644H63.8333C65.2254 43.3436 66.6198 43.1476 67.925 42.6893ZM59.3667 33.9696V32.4153H66.6667V41.1894H65.1083V33.9696H59.3667ZM70.55 38.9123V45.6736H68.975V31.8635H70.55V37.3036H72.2833V38.9434L70.55 38.9123Z" fill="white"/>
<path d="M80.4 44.6944C79.5894 44.8113 78.7702 44.8685 77.95 44.8653H72.7583V43.2644H78.0417C78.845 43.2694 79.6476 43.2148 80.4417 43.1012C81.0191 43.0244 81.5809 42.8672 82.1083 42.6349V44.1892C81.5691 44.4362 80.9933 44.6065 80.4 44.6944ZM79.1667 32.6795C79.7839 33.0634 80.2721 33.6022 80.575 34.2338C80.9103 34.9482 81.0833 35.7195 81.0833 36.4992C81.0833 37.279 80.9103 38.0503 80.575 38.7647C80.2769 39.3991 79.7877 39.939 79.1667 40.319C78.5627 40.6871 77.8548 40.8792 77.1333 40.8708C76.4068 40.8781 75.6939 40.6862 75.0833 40.319C74.4621 39.9372 73.9706 39.398 73.6667 38.7647C73.3314 38.0503 73.1583 37.279 73.1583 36.4992C73.1583 35.7195 73.3314 34.9482 73.6667 34.2338C73.9752 33.6033 74.4657 33.0651 75.0833 32.6795C75.6947 32.3146 76.4076 32.1254 77.1333 32.1355C77.854 32.1243 78.562 32.3137 79.1667 32.6795ZM75.375 34.4592C74.9349 35.0546 74.6993 35.7606 74.6993 36.4837C74.6993 37.2068 74.9349 37.9128 75.375 38.5082C75.5839 38.757 75.8508 38.9582 76.1554 39.0966C76.4601 39.2349 76.7945 39.3068 77.1333 39.3068C77.4722 39.3068 77.8066 39.2349 78.1112 39.0966C78.4159 38.9582 78.6827 38.757 78.8917 38.5082C79.3317 37.9128 79.5674 37.2068 79.5674 36.4837C79.5674 35.7606 79.3317 35.0546 78.8917 34.4592C78.6827 34.2104 78.4159 34.0092 78.1112 33.8708C77.8066 33.7325 77.4722 33.6606 77.1333 33.6606C76.7945 33.6606 76.4601 33.7325 76.1554 33.8708C75.8508 34.0092 75.5839 34.2104 75.375 34.4592ZM83.1833 45.6736V31.8635H84.7417V45.6736H83.1833Z" fill="white"/>
<path d="M86.6167 39.5807V38.2129H91.9667C93.3604 38.2996 94.758 38.1088 96.0667 37.6533V39.0367C95.3083 39.4019 93.85 39.5807 91.6917 39.5807V42.0365H90.1167V39.5807H86.6167ZM88.4167 36.5653C88.0898 36.3301 87.8251 36.028 87.643 35.6824C87.4609 35.3369 87.3662 34.9569 87.3662 34.5719C87.3662 34.1868 87.4609 33.8069 87.643 33.4613C87.8251 33.1158 88.0898 32.8137 88.4167 32.5785C89.2337 32.0715 90.203 31.821 91.1833 31.8635C92.1562 31.8183 93.1184 32.0692 93.925 32.5785C94.2476 32.8164 94.5083 33.1193 94.6875 33.4645C94.8667 33.8098 94.9598 34.1883 94.9598 34.5719C94.9598 34.9554 94.8667 35.334 94.6875 35.6793C94.5083 36.0245 94.2476 36.3274 93.925 36.5653C93.1174 37.0718 92.1552 37.32 91.1833 37.2725C90.2039 37.3173 89.2347 37.0695 88.4167 36.5653ZM99 45.5104H87.7667V41.2827H89.3583V44.0571H99V45.5104ZM89.525 33.5344C89.3373 33.6442 89.1826 33.7966 89.0754 33.9774C88.9681 34.1582 88.9119 34.3614 88.9119 34.568C88.9119 34.7746 88.9681 34.9778 89.0754 35.1586C89.1826 35.3394 89.3373 35.4918 89.525 35.6016C90.0329 35.8665 90.6104 35.993 91.1917 35.9669C91.7734 35.9982 92.3524 35.8714 92.8583 35.6016C93.046 35.4918 93.2007 35.3394 93.308 35.1586C93.4152 34.9778 93.4714 34.7746 93.4714 34.568C93.4714 34.3614 93.4152 34.1582 93.308 33.9774C93.2007 33.7966 93.046 33.6442 92.8583 33.5344C92.3516 33.2674 91.7726 33.1432 91.1917 33.1769C90.6112 33.1488 90.0339 33.2726 89.525 33.5344ZM97.1167 31.8635H98.6917V42.6505H97.1167V41.7878H93.2833V40.5288H97.1167V31.8635Z" fill="white"/>
<path d="M47.2613 3.98901H46.1996L36.8626 18.0693L27.469 3.98901H26.3667V14.2697C26.3667 17.7576 27.2961 20.4237 29.1548 22.2679C30.0349 23.1252 31.14 23.814 32.3903 24.2845C33.6406 24.755 35.0049 24.9954 36.3845 24.9885H37.3003C38.6889 25.0016 40.0636 24.7654 41.3252 24.2972C42.5868 23.8289 43.7036 23.1403 44.5948 22.281C46.4427 20.4716 47.3667 17.799 47.3667 14.2631V3.98901H47.2613ZM29.787 21.6009C28.166 19.9615 27.3555 17.5047 27.3555 14.2304V5.29699L36.3845 18.9784V24.0533C35.1271 24.0705 33.8811 23.859 32.7389 23.4345C31.5968 23.0099 30.5878 22.3832 29.787 21.6009ZM46.4508 14.2304C46.4508 17.5004 45.6403 19.9572 44.0193 21.6009C42.4713 23.1704 40.2262 23.9879 37.3165 24.0598V18.9784L46.4508 5.20543V14.2304Z" fill="white"/>
<path d="M69.3667 3.98901H68.3515L64.0172 13.2868L59.7689 3.98901H58.8942L54.6693 13.3064L50.3116 3.98901H49.3667L54.1305 14.489L49.3667 24.989H50.3116L54.6693 15.6782L58.8942 24.989H59.7689L64.0172 15.6913L68.3515 24.989H69.3667L64.5717 14.489L69.3667 3.98901ZM59.3472 5.65516L63.0957 13.7049H55.5908L59.3472 5.65516ZM59.3472 23.2967L55.2238 14.489H63.4628L59.3472 23.2967Z" fill="white"/>
</g>
<defs>
<clipPath id="clip0_1_317">
<rect width="99" height="46" fill="white"/>
</clipPath>
</defs>
</svg>
