<svg width="112" height="59" viewBox="0 0 112 59" fill="none" xmlns="http://www.w3.org/2000/svg">
<g clip-path="url(#clip0_1_298)">
<path d="M10.9478 54.7402V59.0002H9.16116V54.7402H5.28642V59.0002H3.49977V54.7402H0V52.9743H14.4476V54.7402H10.9478ZM3.83063 51.135C2.96631 50.8845 2.18616 50.4038 1.57343 49.7444C1.05611 49.1383 0.771889 48.3673 0.771889 47.5702C0.771889 46.7732 1.05611 46.0022 1.57343 45.3961C2.18933 44.7437 2.96881 44.2686 3.83063 44.0202C4.92878 43.6863 6.0726 43.5274 7.22011 43.5494C8.37 43.5281 9.51613 43.687 10.6169 44.0202C11.4788 44.2686 12.2582 44.7437 12.8742 45.3961C13.3915 46.0022 13.6757 46.7732 13.6757 47.5702C13.6757 48.3673 13.3915 49.1383 12.8742 49.7444C12.2614 50.4038 11.4813 50.8845 10.6169 51.135C9.51613 51.4682 8.37 51.6271 7.22011 51.6058C6.0726 51.6278 4.92878 51.4689 3.83063 51.135ZM3.91151 45.8375C3.54354 45.954 3.22222 46.1848 2.99415 46.4963C2.76608 46.8079 2.64313 47.184 2.64313 47.5702C2.64313 47.9564 2.76608 48.3326 2.99415 48.6442C3.22222 48.9557 3.54354 49.1865 3.91151 49.3029C4.95379 49.7557 6.08481 49.9669 7.22011 49.921C8.36077 49.9651 9.49669 49.7513 10.5434 49.2956C10.9077 49.1753 11.2248 48.943 11.4495 48.6319C11.6743 48.3209 11.7952 47.9468 11.7952 47.5629C11.7952 47.179 11.6743 46.8049 11.4495 46.4938C11.2248 46.1828 10.9077 45.9505 10.5434 45.8302C9.49783 45.3708 8.36105 45.1568 7.22011 45.2048C6.08339 45.1596 4.95146 45.3761 3.91151 45.8375Z" fill="#8E9299"/>
<path d="M24.4251 43.8658V57.7495H16.3374V43.8658H18.0946V49.0161H22.6458V43.8658H24.4251ZM22.6605 50.7672H18.1093V56.0352H22.6605V50.7672ZM28.8218 51.3411V58.6397H27.0352V43.4097H28.8218V49.5164H30.8217V51.319L28.8218 51.3411Z" fill="#8E9299"/>
<path d="M45.9087 55.1817V56.9034C45.2847 57.2105 44.6179 57.4214 43.9309 57.5288C43.033 57.6885 42.1223 57.7649 41.2104 57.7568H35.5932V56.0425H37.2328V45.6684H35.6667V43.9615H45.1514V45.6684H43.5853V55.866C44.391 55.762 45.1751 55.531 45.9087 55.1817ZM41.8281 56.0131V45.6684H39.0194V56.0425H40.4384C40.7767 56.0425 41.2472 56.0278 41.8281 56.0058V56.0131ZM48.8129 58.6471H47.0557V43.4097H48.8349L48.8129 58.6471Z" fill="#8E9299"/>
<path d="M59.0839 54.8209V59H57.2678V54.8209H50.9521V53.0919H65.4364V54.8209H59.0839ZM51.9447 51.5027V43.6816H53.6725V45.7417H62.6498V43.6816H64.4144V51.5027H51.9447ZM62.6498 47.3972H53.6725V49.8399H62.6498V47.3972Z" fill="#8E9299"/>
<path d="M76.8403 55.3509V57.1167C75.3521 57.6164 73.7832 57.831 72.2156 57.7495H66.6277V55.9837H69.1129V49.6268H70.9142V55.9837H72.223C73.7885 56.0749 75.3569 55.8599 76.8403 55.3509ZM67.1645 45.742V43.9983H75.436V53.6661H73.6567V45.742H67.1645ZM79.8107 51.1939V58.6397H78.0314V43.4097H79.8107V49.3766H81.7738V51.1792L79.8107 51.1939Z" fill="#8E9299"/>
<path d="M90.9572 57.5582C90.0393 57.6909 89.1128 57.7548 88.1854 57.7495H82.3034V55.9837H88.281C89.1883 55.9889 90.0949 55.9299 90.994 55.8071C91.6627 55.731 92.3166 55.5575 92.9351 55.2921V57.0358C92.3027 57.2993 91.6372 57.4751 90.9572 57.5582ZM89.5823 44.3146C90.2636 44.7236 90.8145 45.3182 91.1705 46.0289C91.5478 46.8075 91.7438 47.6615 91.7438 48.5268C91.7438 49.3921 91.5478 50.2461 91.1705 51.0247C90.8143 51.7339 90.2601 52.3243 89.575 52.7243C88.8762 53.1364 88.0773 53.3477 87.2663 53.335C86.4534 53.3442 85.6531 53.1332 84.9503 52.7243C84.263 52.3248 83.7063 51.7344 83.3475 51.0247C82.9701 50.2461 82.7741 49.3921 82.7741 48.5268C82.7741 47.6615 82.9701 46.8075 83.3475 46.0289C83.7107 45.3224 84.2664 44.7331 84.9503 44.3294C85.6537 43.9227 86.454 43.7143 87.2663 43.726C88.0791 43.7098 88.8806 43.9185 89.5823 44.3294V44.3146ZM85.2885 46.2938C84.802 46.9266 84.5382 47.7027 84.5382 48.5011C84.5382 49.2995 84.802 50.0755 85.2885 50.7083C85.5401 50.9862 85.847 51.2083 86.1896 51.3603C86.5321 51.5123 86.9026 51.5908 87.2773 51.5908C87.652 51.5908 88.0226 51.5123 88.3651 51.3603C88.7077 51.2083 89.0146 50.9862 89.2662 50.7083C89.7527 50.0755 90.0165 49.2995 90.0165 48.5011C90.0165 47.7027 89.7527 46.9266 89.2662 46.2938C89.0146 46.0159 88.7077 45.7939 88.3651 45.6419C88.0226 45.4899 87.652 45.4114 87.2773 45.4114C86.9026 45.4114 86.5321 45.4899 86.1896 45.6419C85.847 45.7939 85.5401 46.0159 85.2885 46.2938ZM94.1115 58.6397V43.4097H95.876V58.6397H94.1115Z" fill="#8E9299"/>
<path d="M97.986 51.922V50.4505H104.044C106.25 50.4505 107.787 50.2445 108.676 49.8324V51.3628C107.816 51.7601 106.169 51.9514 103.728 51.9514V54.6663H101.942V51.922H97.986ZM99.9932 48.6037C99.6245 48.3657 99.3212 48.0389 99.1113 47.6533C98.9013 47.2677 98.7912 46.8356 98.7912 46.3965C98.7912 45.9573 98.9013 45.5252 99.1113 45.1396C99.3212 44.754 99.6245 44.4273 99.9932 44.1892C100.945 43.6236 102.042 43.3522 103.147 43.4093C104.239 43.3557 105.322 43.6299 106.258 44.1966C106.622 44.4382 106.92 44.7662 107.127 45.1513C107.333 45.5364 107.441 45.9667 107.441 46.4038C107.441 46.8409 107.333 47.2712 107.127 47.6563C106.92 48.0415 106.622 48.3695 106.258 48.6111C105.322 49.1778 104.239 49.4519 103.147 49.3983C102.041 49.451 100.943 49.1745 99.9932 48.6037ZM111.97 58.4628H99.2948V53.8055H101.089V56.8589H112L111.97 58.4628ZM101.28 45.2708C101.069 45.3734 100.892 45.5336 100.768 45.7328C100.645 45.9319 100.58 46.162 100.581 46.3965C100.578 46.6343 100.641 46.8683 100.765 47.0715C100.888 47.2746 101.067 47.4386 101.28 47.5442C101.859 47.8332 102.501 47.9699 103.147 47.9416C103.787 47.9721 104.423 47.8352 104.993 47.5442C105.205 47.4382 105.383 47.274 105.505 47.0708C105.627 46.8676 105.69 46.6337 105.684 46.3965C105.687 46.1626 105.624 45.9327 105.501 45.7335C105.379 45.5342 105.203 45.3738 104.993 45.2708C104.423 44.9799 103.787 44.8429 103.147 44.8735C102.501 44.8451 101.859 44.9818 101.28 45.2708ZM109.86 43.4093H111.647V55.3138H109.86V54.3647H105.53V52.9741H109.86V43.4093Z" fill="#8E9299"/>
<path d="M73.0906 33.2856L79.6122 18.0776H66.5396L73.0906 33.2856Z" fill="#DAE1EC"/>
<path d="M23.4542 2.20752V17.6583C23.4542 23.2795 24.6992 27.5051 27.1892 30.3353C29.542 33.0135 32.9095 34.404 37.2695 34.5512V25.7516L23.4542 2.20752Z" fill="#DAE1EC"/>
<path d="M38.6593 34.5218C43.1149 34.3967 46.5411 32.9988 48.9527 30.2986C51.4134 27.4684 52.6461 23.255 52.651 17.6584V2.08984L38.6593 25.7516V34.5218Z" fill="#FAFCFE"/>
<path d="M73.0907 3.06836L67.1205 16.9226H79.0314L73.0907 3.06836Z" fill="#FAFCFE"/>
<path d="M53.8861 0H52.2685L37.9901 24.2136L23.6601 0H21.9543V17.6581C21.9543 23.6912 23.3758 28.2799 26.2188 31.424C28.9171 34.367 32.6081 35.9489 37.2475 36.1034H38.6371C43.3868 35.9709 47.1218 34.4332 49.8275 31.4461C52.6558 28.3461 54.0723 23.7501 54.0772 17.6581V0H53.8861ZM27.204 30.2983C24.7042 27.4681 23.4542 23.2547 23.4542 17.6581V2.20726L37.2695 25.7513V34.5142C32.9095 34.367 29.5421 32.9764 27.204 30.2983ZM52.6509 17.6581C52.6509 23.2792 51.4058 27.5049 48.9158 30.3351C46.541 33.0353 43.1147 34.4332 38.6224 34.5583V25.7513L52.592 2.06011L52.6509 17.6581Z" fill="#8E9299"/>
<path d="M88.9645 0H87.347L80.4798 16.01L73.7597 0H72.3627L65.6572 16.0394L58.7606 0H57.2901L64.8044 18.0774L57.2534 36.1549H58.7239L65.6572 20.1228L72.3627 36.1549H73.7597L80.4945 20.1449L87.3617 36.1549H88.9645L81.3694 18.0774L88.9645 0ZM73.0906 2.86944L79.0314 16.7237H67.1204L73.0906 2.86944ZM73.0906 33.2854L66.5395 18.0774H79.6122L73.0906 33.2854Z" fill="#8E9299"/>
</g>
<defs>
<clipPath id="clip0_1_298">
<rect width="112" height="59" fill="white"/>
</clipPath>
</defs>
</svg>
